<?xml version="1.0" standalone="no"?>
<!DOCTYPE svg PUBLIC "-//W3C//DTD SVG 20010904//EN"
 "http://www.w3.org/TR/2001/REC-SVG-20010904/DTD/svg10.dtd">
<svg version="1.0" xmlns="http://www.w3.org/2000/svg"
 width="1080.000000pt" height="1080.000000pt" viewBox="0 0 1080.000000 1080.000000"
 preserveAspectRatio="xMidYMid meet">
<metadata>
Created by potrace 1.16, written by Peter Selinger 2001-2019
</metadata>
<g transform="translate(0.000000,1080.000000) scale(0.100000,-0.100000)"
fill="#FFFFFF" stroke="none">
<path d="M3510 9595 c-154 -34 -323 -151 -488 -336 -444 -496 -938 -1351
-1299 -2249 -216 -536 -363 -1115 -418 -1645 -20 -194 -20 -515 0 -665 48
-366 191 -611 403 -690 168 -64 331 -43 542 67 403 210 870 754 1319 1535 52
92 97 165 99 164 1 -2 -26 -154 -62 -337 -229 -1176 -352 -1990 -344 -2266 l3
-115 33 -29 c44 -40 82 -38 125 5 40 40 107 191 114 257 5 41 2 48 -23 68 -19
15 -38 21 -56 19 -35 -6 -35 -6 -7 207 74 581 257 1604 435 2433 26 122 50
226 54 232 3 5 55 17 116 25 389 54 668 123 717 178 39 44 7 127 -49 127 -12
0 -69 -16 -126 -35 -101 -33 -268 -68 -479 -99 -136 -20 -148 -20 -173 3 -12
11 -34 23 -49 26 -24 6 -33 2 -66 -32 l-38 -40 -334 -36 c-184 -20 -446 -48
-584 -62 -137 -15 -338 -37 -444 -50 -186 -21 -196 -24 -218 -49 -25 -30 -29
-56 -12 -87 17 -34 62 -47 127 -38 108 16 578 68 922 104 190 19 371 38 403
42 31 3 57 2 57 -2 0 -15 -197 -389 -292 -555 -419 -730 -885 -1275 -1249
-1461 -144 -73 -314 -92 -414 -45 -64 29 -151 123 -192 207 -143 290 -153 818
-27 1454 30 153 114 494 151 615 222 723 707 1707 1142 2318 200 281 411 516
536 597 128 84 256 111 331 72 67 -35 122 -127 157 -265 19 -78 22 -112 21
-317 0 -303 -29 -513 -130 -941 -28 -117 -44 -204 -40 -219 14 -57 107 -72
138 -22 8 12 31 92 51 178 115 488 154 779 144 1077 -8 246 -43 390 -127 515
-96 143 -235 199 -400 162z"/>
<path d="M7088 7166 c-391 -138 -1061 -855 -1528 -1636 -355 -592 -539 -1120
-517 -1484 23 -389 252 -605 684 -647 101 -10 116 -9 139 5 50 33 51 99 2 129
-13 9 -62 17 -118 20 -170 11 -336 74 -416 159 -146 154 -171 395 -79 754 48
187 111 347 235 599 275 558 657 1093 1085 1520 274 275 493 428 630 442 48 5
59 3 79 -16 39 -37 49 -96 43 -244 -6 -145 -19 -215 -122 -652 -141 -601 -579
-2553 -634 -2830 -11 -55 -53 -255 -95 -445 -242 -1116 -408 -1971 -432 -2226
-7 -80 6 -138 36 -154 31 -17 88 -12 110 10 37 37 69 116 120 301 333 1186
802 2427 1256 3324 476 941 916 1553 1271 1768 138 83 235 88 309 14 150 -152
161 -607 38 -1582 -27 -216 -46 -352 -153 -1095 -121 -842 -151 -1096 -151
-1293 0 -171 23 -229 97 -243 69 -13 114 24 192 156 57 96 66 145 31 180 -43
43 -102 21 -144 -55 -17 -29 -17 -27 -11 80 7 144 46 466 101 845 286 1947
332 2500 240 2863 -114 447 -452 474 -875 71 -656 -624 -1413 -2099 -2037
-3969 -57 -170 -103 -303 -104 -294 -2 95 727 3424 1015 4634 85 357 105 476
105 635 0 203 -47 312 -155 361 -58 27 -163 25 -247 -5z"/>
<path d="M5147 5667 c-46 -28 -77 -72 -77 -109 0 -34 11 -41 66 -40 86 2 144
50 144 120 0 15 -5 33 -12 40 -19 19 -80 14 -121 -11z"/>
</g>
</svg>
